<svg xmlns="http://www.w3.org/2000/svg" width="199.01" height="35" viewBox="0 0 199.01 35"><rect class="svg__rect" x="0" y="0" width="127.16" height="35" fill="#000000"/><rect class="svg__rect" x="125.16" y="0" width="73.85" height="35" fill="#DF9A36"/><path class="svg__text" d="M13.78 19.42L13.78 19.42L15.27 19.42Q15.27 20.15 15.75 20.55Q16.23 20.95 17.12 20.95L17.12 20.95Q17.90 20.95 18.29 20.63Q18.68 20.32 18.68 19.80L18.68 19.80Q18.68 19.24 18.28 18.94Q17.89 18.63 16.85 18.32Q15.82 18.01 15.21 17.63L15.21 17.63Q14.05 16.90 14.05 15.72L14.05 15.72Q14.05 14.69 14.89 14.02Q15.73 13.35 17.07 13.35L17.07 13.35Q17.96 13.35 18.66 13.68Q19.36 14.01 19.75 14.61Q20.15 15.22 20.15 15.96L20.15 15.96L18.68 15.96Q18.68 15.29 18.26 14.91Q17.84 14.54 17.06 14.54L17.06 14.54Q16.33 14.54 15.93 14.85Q15.53 15.16 15.53 15.71L15.53 15.71Q15.53 16.18 15.96 16.50Q16.40 16.81 17.39 17.10Q18.39 17.40 18.99 17.78Q19.60 18.16 19.88 18.65Q20.16 19.13 20.16 19.79L20.16 19.79Q20.16 20.86 19.34 21.49Q18.52 22.12 17.12 22.12L17.12 22.12Q16.20 22.12 15.42 21.77Q14.64 21.43 14.21 20.83Q13.78 20.22 13.78 19.42ZM24.31 19.16L24.31 19.16L24.31 13.47L25.79 13.47L25.79 19.18Q25.79 20.03 26.22 20.48Q26.66 20.93 27.50 20.93L27.50 20.93Q29.21 20.93 29.21 19.13L29.21 19.13L29.21 13.47L30.69 13.47L30.69 19.17Q30.69 20.53 29.82 21.32Q28.95 22.12 27.50 22.12L27.50 22.12Q26.04 22.12 25.17 21.33Q24.31 20.55 24.31 19.16ZM36.74 22L35.26 22L35.26 13.47L38.52 13.47Q39.95 13.47 40.79 14.21Q41.63 14.96 41.63 16.18L41.63 16.18Q41.63 17.44 40.81 18.13Q39.99 18.83 38.50 18.83L38.50 18.83L36.74 18.83L36.74 22ZM36.74 14.66L36.74 17.64L38.52 17.64Q39.31 17.64 39.73 17.27Q40.14 16.90 40.14 16.19L40.14 16.19Q40.14 15.50 39.72 15.09Q39.30 14.68 38.56 14.66L38.56 14.66L36.74 14.66ZM47.40 22L45.92 22L45.92 13.47L49.18 13.47Q50.61 13.47 51.45 14.21Q52.29 14.96 52.29 16.18L52.29 16.18Q52.29 17.44 51.47 18.13Q50.64 18.83 49.16 18.83L49.16 18.83L47.40 18.83L47.40 22ZM47.40 14.66L47.40 17.64L49.18 17.64Q49.97 17.64 50.39 17.27Q50.80 16.90 50.80 16.19L50.80 16.19Q50.80 15.50 50.38 15.09Q49.96 14.68 49.22 14.66L49.22 14.66L47.40 14.66ZM56.31 18.00L56.31 18.00L56.31 17.52Q56.31 16.28 56.75 15.32Q57.19 14.37 58.00 13.86Q58.80 13.35 59.84 13.35Q60.89 13.35 61.69 13.85Q62.50 14.35 62.94 15.29Q63.38 16.23 63.38 17.48L63.38 17.48L63.38 17.96Q63.38 19.21 62.95 20.16Q62.52 21.10 61.71 21.61Q60.90 22.12 59.86 22.12L59.86 22.12Q58.82 22.12 58.01 21.61Q57.20 21.10 56.75 20.17Q56.31 19.23 56.31 18.00ZM57.79 17.46L57.79 17.96Q57.79 19.36 58.34 20.13Q58.88 20.90 59.86 20.90L59.86 20.90Q60.84 20.90 61.37 20.15Q61.90 19.40 61.90 17.96L61.90 17.96L61.90 17.51Q61.90 16.09 61.36 15.34Q60.83 14.58 59.84 14.58L59.84 14.58Q58.88 14.58 58.34 15.33Q57.80 16.09 57.79 17.46L57.79 17.46ZM69.33 22L67.85 22L67.85 13.47L70.85 13.47Q72.32 13.47 73.13 14.13Q73.93 14.79 73.93 16.05L73.93 16.05Q73.93 16.90 73.52 17.48Q73.10 18.06 72.37 18.37L72.37 18.37L74.28 21.92L74.28 22L72.69 22L70.98 18.71L69.33 18.71L69.33 22ZM69.33 14.66L69.33 17.52L70.85 17.52Q71.60 17.52 72.03 17.15Q72.45 16.77 72.45 16.11L72.45 16.11Q72.45 15.43 72.06 15.05Q71.67 14.68 70.89 14.66L70.89 14.66L69.33 14.66ZM80.01 14.66L77.37 14.66L77.37 13.47L84.14 13.47L84.14 14.66L81.48 14.66L81.48 22L80.01 22L80.01 14.66ZM95.35 22L93.87 22L93.87 13.47L95.79 13.47L98.25 20.01L100.71 13.47L102.62 13.47L102.62 22L101.15 22L101.15 19.19L101.29 15.43L98.77 22L97.71 22L95.20 15.43L95.35 19.19L95.35 22ZM112.94 22L107.36 22L107.36 13.47L112.90 13.47L112.90 14.66L108.85 14.66L108.85 17.02L112.35 17.02L112.35 18.19L108.85 18.19L108.85 20.82L112.94 20.82L112.94 22Z" fill="#FFFFFF"/><path class="svg__text" d="M141.70 22L139.35 22L139.35 13.60L141.70 13.60L141.70 17.09L144.96 13.60L147.57 13.60L144.14 17.32L147.75 22L144.99 22L142.59 18.95L141.70 19.90L141.70 22ZM151.43 17.80L151.43 17.80Q151.43 16.55 152.03 15.55Q152.64 14.56 153.70 14.00Q154.76 13.43 156.09 13.43L156.09 13.43Q157.42 13.43 158.49 14.00Q159.55 14.56 160.16 15.55Q160.76 16.55 160.76 17.80L160.76 17.80Q160.76 19.05 160.16 20.04Q159.55 21.04 158.49 21.60Q157.43 22.17 156.09 22.17L156.09 22.17Q154.76 22.17 153.70 21.60Q152.64 21.04 152.03 20.04Q151.43 19.05 151.43 17.80ZM153.83 17.80L153.83 17.80Q153.83 18.51 154.13 19.05Q154.43 19.60 154.95 19.90Q155.46 20.20 156.09 20.20L156.09 20.20Q156.73 20.20 157.25 19.90Q157.76 19.60 158.06 19.05Q158.36 18.51 158.36 17.80L158.36 17.80Q158.36 17.09 158.06 16.54Q157.76 16 157.25 15.70Q156.73 15.40 156.09 15.40L156.09 15.40Q155.46 15.40 154.94 15.70Q154.43 16 154.13 16.54Q153.83 17.09 153.83 17.80ZM168.73 19.46L165.23 19.46L165.23 17.71L168.73 17.71L168.73 19.46ZM176.01 22L173.63 22L173.63 13.60L180.22 13.60L180.22 15.44L176.01 15.44L176.01 17.28L179.72 17.28L179.72 19.12L176.01 19.12L176.01 22ZM187.20 22L184.82 22L184.82 13.60L187.20 13.60L187.20 22Z" fill="#FFFFFF" x="138.16"/></svg>